<?xml version="1.0" standalone="yes"?>

<svg version="1.1" viewBox="0.0 0.0 1066.0 1066.0" fill="none" stroke="none" stroke-linecap="square" stroke-miterlimit="10" xmlns="http://www.w3.org/2000/svg" xmlns:xlink="http://www.w3.org/1999/xlink"><clipPath id="p.0"><path d="m0 0l1066.0 0l0 1066.0l-1066.0 0l0 -1066.0z" clip-rule="nonzero"></path></clipPath><g clip-path="url(#p.0)"><path fill="#000000" fill-opacity="0.0" d="m0 0l1066.6666 0l0 1066.6666l-1066.6666 0z" fill-rule="nonzero"></path><path fill="#000000" fill-opacity="0.0" d="m29.52231 533.3334l0 0c0 -280.4737 225.56387 -507.84256 503.811 -507.84256l0 0c133.61902 0 261.76532 53.504684 356.24817 148.74364c94.48291 95.23894 147.5628 224.41069 147.5628 359.09894l0 0c0 280.4737 -225.56384 507.84253 -503.81097 507.84253l0 0c-278.24713 0 -503.811 -227.36884 -503.811 -507.84253z" fill-rule="nonzero"></path><path stroke="#e99322" stroke-width="12.0" stroke-linejoin="round" stroke-linecap="butt" d="m29.52231 533.3334l0 0c0 -280.4737 225.56387 -507.84256 503.811 -507.84256l0 0c133.61902 0 261.76532 53.504684 356.24817 148.74364c94.48291 95.23894 147.5628 224.41069 147.5628 359.09894l0 0c0 280.4737 -225.56384 507.84253 -503.81097 507.84253l0 0c-278.24713 0 -503.811 -227.36884 -503.811 -507.84253z" fill-rule="nonzero"></path><path fill="#ececec" d="m281.74286 437.8058l0 0l0 0c30.610596 0 59.967438 12.160004 81.6124 33.80493c21.644928 21.644958 33.80493 51.00183 33.80493 81.612366l0 301.1496c0 0.0010986328 -8.544922E-4 0.001953125 -0.0019226074 0.001953125l-230.83272 -0.001953125l0 0c-0.0010681152 0 -0.0019226074 -8.544922E-4 -0.0019226074 -0.0018920898l0.0019226074 -301.1477l0 0c0 -63.743225 51.674088 -115.4173 115.41731 -115.4173z" fill-rule="nonzero"></path><path stroke="#e99322" stroke-width="4.0" stroke-linejoin="round" stroke-linecap="butt" d="m281.74286 437.8058l0 0l0 0c30.610596 0 59.967438 12.160004 81.6124 33.80493c21.644928 21.644958 33.80493 51.00183 33.80493 81.612366l0 301.1496c0 0.0010986328 -8.544922E-4 0.001953125 -0.0019226074 0.001953125l-230.83272 -0.001953125l0 0c-0.0010681152 0 -0.0019226074 -8.544922E-4 -0.0019226074 -0.0018920898l0.0019226074 -301.1477l0 0c0 -63.743225 51.674088 -115.4173 115.41731 -115.4173z" fill-rule="nonzero"></path><path fill="#ececec" d="m776.92395 437.8058l0 0l0 0c30.610596 0 59.96747 12.160004 81.612366 33.80493c21.644958 21.644958 33.804993 51.00183 33.804993 81.612366l0 301.1496c0 0.0010986328 -8.544922E-4 0.001953125 -0.001953125 0.001953125l-230.8327 -0.001953125l0 0c-0.0010986328 0 -0.001953125 -8.544922E-4 -0.001953125 -0.0018920898l0.001953125 -301.1477l0 0c0 -63.743225 51.674072 -115.4173 115.4173 -115.4173z" fill-rule="nonzero"></path><path stroke="#e99322" stroke-width="4.0" stroke-linejoin="round" stroke-linecap="butt" d="m776.92395 437.8058l0 0l0 0c30.610596 0 59.96747 12.160004 81.612366 33.80493c21.644958 21.644958 33.804993 51.00183 33.804993 81.612366l0 301.1496c0 0.0010986328 -8.544922E-4 0.001953125 -0.001953125 0.001953125l-230.8327 -0.001953125l0 0c-0.0010986328 0 -0.001953125 -8.544922E-4 -0.001953125 -0.0018920898l0.001953125 -301.1477l0 0c0 -63.743225 51.674072 -115.4173 115.4173 -115.4173z" fill-rule="nonzero"></path><path fill="#ececec" d="m532.68756 382.6509l1.291565 0l0 0c44.43103 0 87.0423 17.650177 118.45978 49.067657c31.41748 31.41748 49.067627 74.02875 49.067627 118.45978l0 340.9765c0 0.0015869141 -0.0012207031 0.0028076172 -0.0028076172 0.0028076172l-336.34363 -0.0028076172l0 0c-0.0015258789 0 -0.0028076172 -0.0012207031 -0.0028076172 -0.0028076172l0.0028076172 -340.9737l0 0c0 -92.52283 75.00461 -167.52744 167.52747 -167.52744z" fill-rule="nonzero"></path><path stroke="#e99322" stroke-width="8.0" stroke-linejoin="round" stroke-linecap="butt" d="m532.68756 382.6509l1.291565 0l0 0c44.43103 0 87.0423 17.650177 118.45978 49.067657c31.41748 31.41748 49.067627 74.02875 49.067627 118.45978l0 340.9765c0 0.0015869141 -0.0012207031 0.0028076172 -0.0028076172 0.0028076172l-336.34363 -0.0028076172l0 0c-0.0015258789 0 -0.0028076172 -0.0012207031 -0.0028076172 -0.0028076172l0.0028076172 -340.9737l0 0c0 -92.52283 75.00461 -167.52744 167.52747 -167.52744z" fill-rule="nonzero"></path><path fill="#e99322" d="m426.47723 559.46765l75.88132 0l0 -75.49942l61.948578 0l0 75.49942l75.88135 0l0 61.94861l-75.88135 0l0 75.49939l-61.948578 0l0 -75.49939l-75.88132 0z" fill-rule="nonzero"></path><path fill="#ececec" d="m420.23096 304.5538l0 0c0 -59.168396 48.8468 -107.13385 109.102356 -107.13385l0 0c28.935791 0 56.6864 11.287277 77.14703 31.378769c20.460693 20.091507 31.955322 47.341415 31.955322 75.75508l0 0c0 59.168396 -48.84674 107.13385 -109.102356 107.13385l0 0c-60.255554 0 -109.102356 -47.965454 -109.102356 -107.13385z" fill-rule="nonzero"></path><path stroke="#e99322" stroke-width="4.0" stroke-linejoin="round" stroke-linecap="butt" d="m420.23096 304.5538l0 0c0 -59.168396 48.8468 -107.13385 109.102356 -107.13385l0 0c28.935791 0 56.6864 11.287277 77.14703 31.378769c20.460693 20.091507 31.955322 47.341415 31.955322 75.75508l0 0c0 59.168396 -48.84674 107.13385 -109.102356 107.13385l0 0c-60.255554 0 -109.102356 -47.965454 -109.102356 -107.13385z" fill-rule="nonzero"></path><path fill="#ececec" d="m205.53806 370.88214l0 0c0 -41.243073 34.118027 -74.677185 76.20474 -74.677185l0 0c20.210724 0 39.59372 7.8677673 53.884857 21.872437c14.291168 14.0047 22.319855 32.999115 22.319855 52.80475l0 0c0 41.243042 -34.11801 74.677155 -76.20471 74.677155l0 0c-42.086716 0 -76.20474 -33.434113 -76.20474 -74.677155z" fill-rule="nonzero"></path><path stroke="#e99322" stroke-width="4.0" stroke-linejoin="round" stroke-linecap="butt" d="m205.53806 370.88214l0 0c0 -41.243073 34.118027 -74.677185 76.20474 -74.677185l0 0c20.210724 0 39.59372 7.8677673 53.884857 21.872437c14.291168 14.0047 22.319855 32.999115 22.319855 52.80475l0 0c0 41.243042 -34.11801 74.677155 -76.20471 74.677155l0 0c-42.086716 0 -76.20474 -33.434113 -76.20474 -74.677155z" fill-rule="nonzero"></path><path fill="#ececec" d="m700.7192 370.88214l0 0c0 -41.243073 34.11798 -74.677185 76.20471 -74.677185l0 0c20.210754 0 39.59369 7.8677673 53.884888 21.872437c14.291138 14.0047 22.319824 32.999115 22.319824 52.80475l0 0c0 41.243042 -34.11798 74.677155 -76.20471 74.677155l0 0c-42.08673 0 -76.20471 -33.434113 -76.20471 -74.677155z" fill-rule="nonzero"></path><path stroke="#e99322" stroke-width="4.0" stroke-linejoin="round" stroke-linecap="butt" d="m700.7192 370.88214l0 0c0 -41.243073 34.11798 -74.677185 76.20471 -74.677185l0 0c20.210754 0 39.59369 7.8677673 53.884888 21.872437c14.291138 14.0047 22.319824 32.999115 22.319824 52.80475l0 0c0 41.243042 -34.11798 74.677155 -76.20471 74.677155l0 0c-42.08673 0 -76.20471 -33.434113 -76.20471 -74.677155z" fill-rule="nonzero"></path></g></svg>

