<?xml version="1.0" standalone="yes"?>

<svg version="1.1" viewBox="0.0 0.0 1066.0 1066.0" fill="none" stroke="none" stroke-linecap="square" stroke-miterlimit="10" xmlns="http://www.w3.org/2000/svg" xmlns:xlink="http://www.w3.org/1999/xlink"><clipPath id="p.0"><path d="m0 0l1066.0 0l0 1066.0l-1066.0 0l0 -1066.0z" clip-rule="nonzero"></path></clipPath><g clip-path="url(#p.0)"><path fill="#000000" fill-opacity="0.0" d="m0 0l1066.6666 0l0 1066.6666l-1066.6666 0z" fill-rule="nonzero"></path><path fill="#000000" fill-opacity="0.0" d="m29.52231 533.3333l0 0c0 -280.4737 225.56387 -507.84253 503.811 -507.84253l0 0c133.61902 0 261.76532 53.50468 356.24823 148.74362c94.48285 95.23894 147.56287 224.41069 147.56287 359.09888l0 0c0 280.4737 -225.5639 507.84247 -503.8111 507.84247l0 0c-278.24713 0 -503.811 -227.36877 -503.811 -507.84247z" fill-rule="nonzero"></path><path stroke="#e99322" stroke-width="12.0" stroke-linejoin="round" stroke-linecap="butt" d="m29.52231 533.3333l0 0c0 -280.4737 225.56387 -507.84253 503.811 -507.84253l0 0c133.61902 0 261.76532 53.50468 356.24823 148.74362c94.48285 95.23894 147.56287 224.41069 147.56287 359.09888l0 0c0 280.4737 -225.5639 507.84247 -503.8111 507.84247l0 0c-278.24713 0 -503.811 -227.36877 -503.811 -507.84247z" fill-rule="nonzero"></path><path fill="#ececec" d="m298.71915 482.98688l469.22836 0l0 336.62994l-469.22836 0z" fill-rule="nonzero"></path><path stroke="#e99322" stroke-width="4.0" stroke-linejoin="round" stroke-linecap="butt" d="m298.71915 482.98688l469.22836 0l0 336.62994l-469.22836 0z" fill-rule="nonzero"></path><path fill="#ececec" d="m209.50656 482.98688l323.82675 -235.93701l323.82678 235.93701z" fill-rule="nonzero"></path><path stroke="#e99322" stroke-width="4.0" stroke-linejoin="round" stroke-linecap="butt" d="m209.50656 482.98688l323.82675 -235.93701l323.82678 235.93701z" fill-rule="nonzero"></path><path fill="#ececec" d="m301.11285 453.28873l464.44098 0l0 64.125946l-464.44098 0z" fill-rule="nonzero"></path></g></svg>

