<?xml version="1.0" standalone="yes"?>

<svg version="1.1" viewBox="0.0 0.0 1066.0 1066.0" fill="none" stroke="none" stroke-linecap="square" stroke-miterlimit="10" xmlns="http://www.w3.org/2000/svg" xmlns:xlink="http://www.w3.org/1999/xlink"><clipPath id="p.0"><path d="m0 0l1066.0 0l0 1066.0l-1066.0 0l0 -1066.0z" clip-rule="nonzero"></path></clipPath><g clip-path="url(#p.0)"><path fill="#000000" fill-opacity="0.0" d="m0 0l1066.6666 0l0 1066.6666l-1066.6666 0z" fill-rule="nonzero"></path><path fill="#000000" fill-opacity="0.0" d="m375.3832 712.43304l3.9685059 0l0 2.645691l-3.9685059 0z" fill-rule="nonzero"></path><path fill="#000000" fill-opacity="0.0" d="m364.48294 614.6221l337.70078 0l0 222.04724l-337.70078 0z" fill-rule="nonzero"></path><path fill="#ececec" d="m174.46982 533.33203l120.28348 -120.28348l0 60.141724l285.51184 0l0 120.28348l-285.51184 0l0 60.141724z" fill-rule="nonzero"></path><path stroke="#e99322" stroke-width="4.0" stroke-linejoin="round" stroke-linecap="butt" d="m174.46982 533.33203l120.28348 -120.28348l0 60.141724l285.51184 0l0 120.28348l-285.51184 0l0 60.141724z" fill-rule="nonzero"></path><path fill="#000000" fill-opacity="0.0" d="m29.52231 533.3334l0 0c0 -280.4737 225.56387 -507.84256 503.811 -507.84256l0 0c133.61902 0 261.76532 53.504684 356.24817 148.74364c94.48291 95.23894 147.5628 224.41069 147.5628 359.09894l0 0c0 280.4737 -225.56384 507.84253 -503.81097 507.84253l0 0c-278.24713 0 -503.811 -227.36884 -503.811 -507.84253z" fill-rule="nonzero"></path><path stroke="#e99322" stroke-width="12.0" stroke-linejoin="round" stroke-linecap="butt" d="m29.52231 533.3334l0 0c0 -280.4737 225.56387 -507.84256 503.811 -507.84256l0 0c133.61902 0 261.76532 53.504684 356.24817 148.74364c94.48291 95.23894 147.5628 224.41069 147.5628 359.09894l0 0c0 280.4737 -225.56384 507.84253 -503.81097 507.84253l0 0c-278.24713 0 -503.811 -227.36884 -503.811 -507.84253z" fill-rule="nonzero"></path><path fill="#ececec" d="m399.1706 891.5302l355.55646 0l0 -716.39636l-347.6247 0l67.409454 64.7664l195.62204 0l0 571.0026l-155.9685 0z" fill-rule="nonzero"></path><path stroke="#e99322" stroke-width="4.0" stroke-linejoin="round" stroke-linecap="butt" d="m399.1706 891.5302l355.55646 0l0 -716.39636l-347.6247 0l67.409454 64.7664l195.62204 0l0 571.0026l-155.9685 0z" fill-rule="nonzero"></path></g></svg>

