<?xml version="1.0" standalone="yes"?>

<svg version="1.1" viewBox="0.0 0.0 1066.0 1066.0" fill="none" stroke="none" stroke-linecap="square" stroke-miterlimit="10" xmlns="http://www.w3.org/2000/svg" xmlns:xlink="http://www.w3.org/1999/xlink"><clipPath id="p.0"><path d="m0 0l1066.0 0l0 1066.0l-1066.0 0l0 -1066.0z" clip-rule="nonzero"></path></clipPath><g clip-path="url(#p.0)"><path fill="#000000" fill-opacity="0.0" d="m0 0l1066.6666 0l0 1066.6666l-1066.6666 0z" fill-rule="nonzero"></path><path fill="#000000" fill-opacity="0.0" d="m375.3832 712.43304l3.9685059 0l0 2.645691l-3.9685059 0z" fill-rule="nonzero"></path><path fill="#ececec" d="m197.83727 533.3333l0 0c0 -185.28064 150.20671 -335.4803 335.49603 -335.4803l0 0c88.979126 0 174.31384 35.345154 237.23157 98.2599c62.917664 62.914764 98.26453 148.24551 98.26453 237.2204l0 0c0 185.2807 -150.20673 335.48035 -335.4961 335.48035l0 0c-185.28934 0 -335.49603 -150.19965 -335.49603 -335.48035z" fill-rule="nonzero"></path><path stroke="#e99322" stroke-width="8.0" stroke-linejoin="round" stroke-linecap="butt" d="m197.83727 533.3333l0 0c0 -185.28064 150.20671 -335.4803 335.49603 -335.4803l0 0c88.979126 0 174.31384 35.345154 237.23157 98.2599c62.917664 62.914764 98.26453 148.24551 98.26453 237.2204l0 0c0 185.2807 -150.20673 335.48035 -335.4961 335.48035l0 0c-185.28934 0 -335.49603 -150.19965 -335.49603 -335.48035z" fill-rule="nonzero"></path><path fill="#000000" fill-opacity="0.0" d="m364.48294 614.6221l337.70078 0l0 222.04724l-337.70078 0z" fill-rule="nonzero"></path><path fill="#000000" fill-opacity="0.0" d="m29.52231 533.3334l0 0c0 -280.4737 225.56387 -507.84256 503.811 -507.84256l0 0c133.61902 0 261.76532 53.504684 356.24817 148.74364c94.48291 95.23894 147.5628 224.41069 147.5628 359.09894l0 0c0 280.4737 -225.56384 507.84253 -503.81097 507.84253l0 0c-278.24713 0 -503.811 -227.36884 -503.811 -507.84253z" fill-rule="nonzero"></path><path stroke="#e99322" stroke-width="12.0" stroke-linejoin="round" stroke-linecap="butt" d="m29.52231 533.3334l0 0c0 -280.4737 225.56387 -507.84256 503.811 -507.84256l0 0c133.61902 0 261.76532 53.504684 356.24817 148.74364c94.48291 95.23894 147.5628 224.41069 147.5628 359.09894l0 0c0 280.4737 -225.56384 507.84253 -503.81097 507.84253l0 0c-278.24713 0 -503.811 -227.36884 -503.811 -507.84253z" fill-rule="nonzero"></path><path fill="#ececec" d="m444.78217 244.19423l33.212585 -132.8504l110.677185 0l33.212585 132.8504z" fill-rule="nonzero"></path><path stroke="#e99322" stroke-width="3.0" stroke-linejoin="round" stroke-linecap="butt" d="m444.78217 244.19423l33.212585 -132.8504l110.677185 0l33.212585 132.8504z" fill-rule="nonzero"></path><path fill="#ececec" d="m822.46985 444.77692l132.85034 33.212585l0 110.677185l-132.85034 33.212585z" fill-rule="nonzero"></path><path stroke="#e99322" stroke-width="3.0" stroke-linejoin="round" stroke-linecap="butt" d="m822.46985 444.77692l132.85034 33.212585l0 110.677185l-132.85034 33.212585z" fill-rule="nonzero"></path><path fill="#ececec" d="m676.3388 265.3758l117.44098 -70.464584l78.25195 78.25197l-70.46454 117.44095z" fill-rule="nonzero"></path><path stroke="#e99322" stroke-width="3.0" stroke-linejoin="round" stroke-linecap="butt" d="m676.3388 265.3758l117.44098 -70.464584l78.25195 78.25197l-70.46454 117.44095z" fill-rule="nonzero"></path><path fill="#ececec" d="m801.56805 676.05383l70.4646 117.44092l-78.25195 78.25195l-117.44098 -70.46454z" fill-rule="nonzero"></path><path stroke="#e99322" stroke-width="3.0" stroke-linejoin="round" stroke-linecap="butt" d="m801.56805 676.05383l70.4646 117.44092l-78.25195 78.25195l-117.44098 -70.46454z" fill-rule="nonzero"></path><path fill="#ececec" d="m244.19685 444.77692l-132.8504 33.212585l0 110.677185l132.8504 33.212585z" fill-rule="nonzero"></path><path stroke="#e99322" stroke-width="3.0" stroke-linejoin="round" stroke-linecap="butt" d="m244.19685 444.77692l-132.8504 33.212585l0 110.677185l132.8504 33.212585z" fill-rule="nonzero"></path><path fill="#ececec" d="m444.78217 822.4725l33.212585 132.85034l110.677185 0l33.212585 -132.85034z" fill-rule="nonzero"></path><path stroke="#e99322" stroke-width="3.0" stroke-linejoin="round" stroke-linecap="butt" d="m444.78217 822.4725l33.212585 132.85034l110.677185 0l33.212585 -132.85034z" fill-rule="nonzero"></path><path fill="#ececec" d="m265.10092 390.60495l-70.46457 -117.44095l78.25195 -78.25197l117.44095 70.464554z" fill-rule="nonzero"></path><path stroke="#e99322" stroke-width="3.0" stroke-linejoin="round" stroke-linecap="butt" d="m265.10092 390.60495l-70.46457 -117.44095l78.25195 -78.25197l117.44095 70.464554z" fill-rule="nonzero"></path><path fill="#ececec" d="m390.3283 801.2813l-117.44095 70.4646l-78.25197 -78.25195l70.464584 -117.44098z" fill-rule="nonzero"></path><path stroke="#e99322" stroke-width="3.0" stroke-linejoin="round" stroke-linecap="butt" d="m390.3283 801.2813l-117.44095 70.4646l-78.25197 -78.25195l70.464584 -117.44098z" fill-rule="nonzero"></path><path fill="#ececec" d="m197.83727 533.3333l0 0c0 -185.28064 150.20671 -335.4803 335.49603 -335.4803l0 0c88.979126 0 174.31384 35.345154 237.23157 98.2599c62.917664 62.914764 98.26453 148.24551 98.26453 237.2204l0 0c0 185.2807 -150.20673 335.48035 -335.4961 335.48035l0 0c-185.28934 0 -335.49603 -150.19965 -335.49603 -335.48035z" fill-rule="nonzero"></path><path fill="#e99322" d="m424.93964 533.3333l0 0c0 -59.85547 48.52951 -108.37793 108.39368 -108.37793l0 0c28.747803 0 56.318176 11.4183655 76.645935 31.743164c20.327759 20.324799 31.747803 47.891174 31.747803 76.634766l0 0c0 59.85553 -48.52954 108.37799 -108.39374 108.37799l0 0c-59.864166 0 -108.39368 -48.52246 -108.39368 -108.37799z" fill-rule="nonzero"></path><path stroke="#e99322" stroke-width="2.0" stroke-linejoin="round" stroke-linecap="butt" d="m424.93964 533.3333l0 0c0 -59.85547 48.52951 -108.37793 108.39368 -108.37793l0 0c28.747803 0 56.318176 11.4183655 76.645935 31.743164c20.327759 20.324799 31.747803 47.891174 31.747803 76.634766l0 0c0 59.85553 -48.52954 108.37799 -108.39374 108.37799l0 0c-59.864166 0 -108.39368 -48.52246 -108.39368 -108.37799z" fill-rule="nonzero"></path></g></svg>

